<?xml version="1.0" encoding="UTF-8"?>
<svg width="800px" height="800px" viewBox="0 0 800 800" version="1.1" xmlns="http://www.w3.org/2000/svg">
    <defs>
        <linearGradient x1="0%" y1="0%" x2="100%" y2="100%" id="brainGradient">
            <stop stop-color="#7B2FFF" offset="0%"/>
            <stop stop-color="#4DABFF" offset="50%"/>
            <stop stop-color="#3F7FE9" offset="100%"/>
        </linearGradient>
        <filter id="glow" x="-50%" y="-50%" width="200%" height="200%">
            <feGaussianBlur stdDeviation="5" result="coloredBlur"/>
            <feMerge>
                <feMergeNode in="coloredBlur"/>
                <feMergeNode in="SourceGraphic"/>
            </feMerge>
        </filter>
    </defs>
    <g stroke="none" fill="url(#brainGradient)" filter="url(#glow)">
        <!-- Left hemisphere -->
        <path d="M380,150 C280,150 200,230 200,330 C200,380 220,420 250,450
                 C220,470 200,510 200,550 C200,610 250,660 310,660
                 C340,660 370,650 390,630 L390,150 C387,150 383,150 380,150Z"/>
        
        <!-- Right hemisphere -->
        <path d="M420,150 C520,150 600,230 600,330 C600,380 580,420 550,450
                 C580,470 600,510 600,550 C600,610 550,660 490,660
                 C460,660 430,650 410,630 L410,150 C413,150 417,150 420,150Z"/>
        
        <!-- Neural connections -->
        <g fill="none" stroke="url(#brainGradient)" stroke-width="2">
            <path d="M300,300 Q400,200 500,300" opacity="0.5"/>
            <path d="M300,400 Q400,300 500,400" opacity="0.5"/>
            <path d="M300,500 Q400,400 500,500" opacity="0.5"/>
        </g>
        
        <!-- Synapses -->
        <g fill="#FFFFFF" opacity="0.8">
            <circle cx="300" cy="300" r="4"/>
            <circle cx="400" cy="250" r="4"/>
            <circle cx="500" cy="300" r="4"/>
            <circle cx="300" cy="400" r="4"/>
            <circle cx="400" cy="350" r="4"/>
            <circle cx="500" cy="400" r="4"/>
            <circle cx="300" cy="500" r="4"/>
            <circle cx="400" cy="450" r="4"/>
            <circle cx="500" cy="500" r="4"/>
        </g>
    </g>
</svg> 